<svg xmlns="http://www.w3.org/2000/svg" width="24" height="24" viewBox="0 0 24 24">
  <rect x="1.5" y="1.5" width="21" height="21" rx="6" fill="#EEF6FF" stroke="#BFD9F2"/>
  <path d="M12 5.2l6 3.4v6.8l-6 3.4-6-3.4V8.6l6-3.4z" fill="#2563EB"/>
  <path d="M10.4 14.7c-.8 0-1.4-.3-1.9-.8-.5-.5-.7-1.1-.7-1.9s.2-1.4.7-1.9c.5-.5 1.1-.8 1.9-.8.9 0 1.7.4 2.3 1.2l-1.1.8c-.3-.5-.7-.7-1.2-.7-.4 0-.7.1-.9.4-.2.2-.3.6-.3 1s.1.8.3 1c.2.3.5.4.9.4.6 0 1-.2 1.3-.7l1.1.8c-.6.8-1.4 1.2-2.4 1.2z" fill="#ffffff"/>
  <path d="M14.7 11.2h.9v-.9h.9v.9h.9v.9h-.9v.9h-.9v-.9h-.9v-.9zm2.7 0h.9v-.9h.9v.9h.9v.9h-.9v.9h-.9v-.9h-.9v-.9z" fill="#ffffff"/>
</svg>
