<svg xmlns="http://www.w3.org/2000/svg" width="24" height="24" viewBox="0 0 24 24">
  <rect x="1.5" y="1.5" width="21" height="21" rx="6" fill="#E6FAFF" stroke="#BFD9F2"/>
  <path d="M7.2 13.3c0-2.7 2.1-4.8 4.8-4.8h.9c2.6 0 4.7 2.1 4.7 4.8v1.4c0 1.4-1.1 2.5-2.5 2.5H9.7c-1.4 0-2.5-1.1-2.5-2.5v-1.4z" fill="#00ADD8"/>
  <circle cx="10.5" cy="12.7" r="1" fill="#111111"/>
  <circle cx="13.5" cy="12.7" r="1" fill="#111111"/>
  <path d="M10.2 15.4c.6.6 1.4.9 1.8.9s1.2-.3 1.8-.9" fill="none" stroke="#111111" stroke-width="1.2" stroke-linecap="round"/>
  <path d="M8.8 10.2c.4-.6 1.1-1 1.9-1M13.3 9.2c.8 0 1.5.4 1.9 1" fill="none" stroke="#005B72" stroke-width="1.2" stroke-linecap="round"/>
</svg>
