<svg xmlns="http://www.w3.org/2000/svg" width="24" height="24" viewBox="0 0 24 24">
  <rect x="1.5" y="1.5" width="21" height="21" rx="6" fill="#ffffff" stroke="#BFD9F2"/>
  <path d="M7.2 16.2h9.6c0 2-2.2 3.4-4.8 3.4s-4.8-1.4-4.8-3.4z" fill="#E11D48"/>
  <path d="M8.5 14.8h7c.4 0 .7.3.7.7s-.3.7-.7.7h-7c-.4 0-.7-.3-.7-.7s.3-.7.7-.7z" fill="#E11D48"/>
  <path d="M12 4.8c1.5 1.5-1.7 2.6-.3 4.2 1 1.2 3 .8 3.3 2.5.3 1.6-1.3 2.8-2.8 3.4 1.1-1 1.5-2 .6-2.7-.7-.6-2-.6-2.7-1.6-1.2-1.6 1.2-2.8.9-4.2-.2-1-1.1-1.2-1.9-1.6 1.3-.6 2.3-.5 2.9 0z" fill="#2563EB"/>
</svg>
