<svg xmlns="http://www.w3.org/2000/svg" width="24" height="24" viewBox="0 0 24 24">
  <rect x="1.5" y="1.5" width="21" height="21" rx="6" fill="#F7DF1E" stroke="#BFD9F2"/>
  <path d="M8.2 17.2c.4.7 1 1.2 2 1.2 1 0 1.6-.5 1.6-1.3 0-.9-.7-1.2-1.9-1.7l-.6-.3c-1.8-.8-3-1.7-3-3.8 0-1.9 1.5-3.4 3.8-3.4 1.6 0 2.8.6 3.6 2l-2 1.3c-.4-.7-.9-1-1.6-1-.7 0-1.2.4-1.2 1 0 .7.4 1 1.5 1.5l.6.3c2.1.9 3.3 1.8 3.3 4 0 2.3-1.8 3.6-4.2 3.6-2.3 0-3.8-1.1-4.6-2.6l2.2-1.3zm8.3.2c.4.7.7 1.3 1.6 1.3.8 0 1.3-.3 1.3-1.5V8h2.7v9.2c0 2.8-1.6 4.1-4 4.1-2.1 0-3.4-1.1-4-2.4l2.4-1.5z" fill="#111111"/>
</svg>
