<svg xmlns="http://www.w3.org/2000/svg" width="24" height="24" viewBox="0 0 24 24">
  <rect x="1.5" y="1.5" width="21" height="21" rx="6" fill="#ffffff" stroke="#BFD9F2"/>
  <path d="M9.2 3.8c-2.0 0-3.4 1.2-3.4 3.0v2.1h6.9c1.8 0 3.2 1.3 3.2 3.0v3.0c0 1.8-1.4 3.2-3.2 3.2H9.1c-2.0 0-3.3-1.4-3.7-3.2-.2-.8-.2-1.6 0-2.4h2.1v1.9c0 .9.8 1.6 1.7 1.6h3.6c.9 0 1.6-.7 1.6-1.6v-3.0c0-.9-.7-1.5-1.6-1.5H7.5c-2.0 0-3.7-1.6-3.7-3.7V6.8C3.8 4.8 5.3 3.8 7.1 3.8h2.1z" fill="#3776AB"/>
  <circle cx="8.3" cy="6.2" r="0.9" fill="#ffffff"/>
  <path d="M14.8 20.2c2.0 0 3.4-1.2 3.4-3.0v-2.1h-6.9c-1.8 0-3.2-1.3-3.2-3.0v-3.0C8.1 7.3 9.5 5.9 11.3 5.9h3.6c2.0 0 3.3 1.4 3.7 3.2.2.8.2 1.6 0 2.4h-2.1v-1.9c0-.9-.8-1.6-1.7-1.6h-3.6c-.9 0-1.6.7-1.6 1.6v3.0c0 .9.7 1.5 1.6 1.5h5.2c2.0 0 3.7 1.6 3.7 3.7v.2c0 2.0-1.5 3.0-3.3 3.0h-2.0z" fill="#FFD43B"/>
  <circle cx="15.7" cy="17.8" r="0.9" fill="#111111"/>
</svg>
